Coordinates
version=1
nRows=30
nColumns=38
inDegrees=no

Units are S.I. units (second, meters, Newtons, ...)
If the header above contains a line with 'inDegrees', this indicates whether rotational values are in degrees (yes) or radians (no).

endheader
time	pelvis_tilt	pelvis_list	pelvis_rotation	pelvis_tx	pelvis_ty	pelvis_tz	hip_flexion_r	hip_adduction_r	hip_rotation_r	knee_angle_r	ankle_angle_r	subtalar_angle_r	mtp_angle_r	hip_flexion_l	hip_adduction_l	hip_rotation_l	knee_angle_l	ankle_angle_l	subtalar_angle_l	mtp_angle_l	lumbar_extension	lumbar_bending	lumbar_rotation	arm_flex_r	arm_add_r	arm_rot_r	elbow_flex_r	pro_sup_r	wrist_flex_r	wrist_dev_r	arm_flex_l	arm_add_l	arm_rot_l	elbow_flex_l	pro_sup_l	wrist_flex_l	wrist_dev_l
5.01	0.453946	1.45413	-1.98978	0.676438	-0.505276	0.937224	-0.110484	-0.0439201	-0.305643	0.177569	0.116173	0	0	-0.106701	0.00156919	-0.179848	0.106841	0.0516503	0	0	-0.191789	-0.0374782	-0.101435	-0.054578	-0.289352	0.302483	0.920572	1.45037	0	0	-0.127752	-0.261682	0.377378	0.553496	1.42845	0	0
5.02	0.47199	1.45368	-2.00743	0.676972	-0.506782	0.937259	-0.110069	-0.0473255	-0.306613	0.181421	0.118799	0	0	-0.116042	0.00654333	-0.175364	0.0897674	0.0423494	0	0	-0.189016	-0.0398093	-0.101025	-0.0525763	-0.285678	0.313897	0.895359	1.45002	0	0	-0.126311	-0.263958	0.382051	0.553173	1.43404	0	0
5.03	0.484188	1.45278	-2.01794	0.677698	-0.508069	0.93734	-0.110211	-0.0502756	-0.309152	0.185391	0.120898	0	0	-0.126277	0.0111854	-0.167245	0.071812	0.0330641	0	0	-0.187561	-0.0412777	-0.101656	-0.0501542	-0.282178	0.32602	0.86983	1.45019	0	0	-0.123958	-0.266522	0.388451	0.553207	1.437	0	0
5.04	0.492101	1.4517	-2.02418	0.678477	-0.509273	0.93739	-0.110526	-0.0528853	-0.31197	0.18959	0.122847	0	0	-0.137577	0.0154736	-0.157774	0.0526638	0.0238884	0	0	-0.186686	-0.042081	-0.101335	-0.048777	-0.278797	0.336113	0.845035	1.45074	0	0	-0.120091	-0.269387	0.397447	0.553091	1.44006	0	0
5.05	0.501798	1.45038	-2.03273	0.679011	-0.510192	0.937375	-0.110154	-0.0556077	-0.313762	0.194452	0.125453	0	0	-0.148035	0.0195113	-0.149572	0.0350277	0.0151955	0	0	-0.188758	-0.0369919	-0.088513	-0.0594898	-0.277652	0.328491	0.834519	1.45053	0	0	-0.104816	-0.270373	0.41488	0.547524	1.44265	0	0
5.06	0.50585	1.45129	-2.03613	0.679814	-0.511105	0.937152	-0.107533	-0.0570307	-0.314163	0.199854	0.127908	0	0	-0.155141	0.0217791	-0.146366	0.0207598	0.00966606	0	0	-0.186911	-0.0362385	-0.0872388	-0.0572306	-0.27583	0.342523	0.809079	1.44859	0	0	-0.100564	-0.272913	0.419724	0.550118	1.44081	0	0
5.07	0.514276	1.45315	-2.04219	0.680826	-0.511963	0.936808	-0.103283	-0.0587943	-0.316596	0.206976	0.131535	0	0	-0.162082	0.0239595	-0.139488	0.00368147	0.00180294	0	0	-0.183993	-0.0351776	-0.0893891	-0.0512697	-0.275292	0.368984	0.778486	1.43186	0	0	-0.0971764	-0.269495	0.391455	0.544864	1.53764	0	0
5.08	0.518785	1.45482	-2.04384	0.681859	-0.512835	0.936447	-0.0999234	-0.0599912	-0.319011	0.213215	0.134909	0	0	-0.16658	0.0248261	-0.13818	0	-0.000427594	0	0	-0.181346	-0.0338721	-0.0905246	-0.0483719	-0.273517	0.3867	0.751109	1.42918	0	0	-0.0930602	-0.272525	0.396533	0.547767	1.54597	0	0
5.09	0.528408	1.45591	-2.0525	0.682724	-0.513622	0.936078	-0.0957451	-0.062513	-0.32062	0.221001	0.139162	0	0	-0.171409	0.0266139	-0.13772	0	-0.00212853	0	0	-0.178927	-0.0338231	-0.0907682	-0.0427291	-0.272178	0.411697	0.719617	1.4264	0	0	-0.0897666	-0.27623	0.402241	0.55261	1.54971	0	0
5.1	0.525057	1.45445	-2.04952	0.683547	-0.513995	0.93603	-0.0953797	-0.06782	-0.325927	0.227512	0.145144	0	0	-0.167878	0.0271108	-0.138315	0	-0.00227199	0	0	-0.180746	-0.033503	-0.089616	-0.0375066	-0.270564	0.432278	0.691002	1.42771	0	0	-0.0852547	-0.279564	0.406166	0.557796	1.54993	0	0
5.11	0.530584	1.45375	-2.05466	0.684349	-0.514519	0.935783	-0.0930971	-0.0707711	-0.326287	0.23476	0.148646	0	0	-0.170193	0.0286712	-0.138017	0	-0.0035815	0	0	-0.181136	-0.0338976	-0.0883474	-0.0333614	-0.2684	0.450919	0.662188	1.43132	0	0	-0.0803055	-0.282962	0.409293	0.562815	1.54847	0	0
5.12	0.53247	1.45278	-2.05516	0.68527	-0.515255	0.935571	-0.0927572	-0.072978	-0.327234	0.239624	0.151569	0	0	-0.173125	0.0298745	-0.136866	0	-0.00467289	0	0	-0.181747	-0.0337967	-0.0865375	-0.0337453	-0.26552	0.457857	0.63943	1.43925	0	0	-0.0740053	-0.285865	0.412866	0.565835	1.54515	0	0
5.13	0.539455	1.45213	-2.05916	0.686332	-0.515865	0.935294	-0.0916817	-0.0757539	-0.330424	0.24526	0.155198	0	0	-0.174936	0.0313801	-0.135017	0	-0.00535123	0	0	-0.18178	-0.0341761	-0.0878978	-0.0302966	-0.263289	0.478506	0.611837	1.44127	0	0	-0.0690779	-0.289202	0.412411	0.570528	1.55029	0	0
5.14	0.546102	1.45131	-2.06256	0.687469	-0.516357	0.935038	-0.0904796	-0.0788313	-0.334307	0.251464	0.158494	0	0	-0.176675	0.0330809	-0.132363	0	-0.00619159	0	0	-0.182325	-0.0344678	-0.0895525	-0.0271094	-0.261034	0.497654	0.585956	1.44403	0	0	-0.0638337	-0.292431	0.411167	0.5754	1.55445	0	0
5.15	0.663228	1.44264	-2.17449	0.688193	-0.516057	0.935358	-0.0863539	-0.0997088	-0.341257	0.262753	0.165592	0	0	-0.176202	0.0514206	-0.123962	0	-0.0146001	0	0	-0.184891	-0.0532849	-0.0948699	-0.0219502	-0.251753	0.511669	0.556075	1.4483	0	0	-0.0569645	-0.300275	0.409498	0.580812	1.55597	0	0
5.16	0.668986	1.44099	-2.17901	0.689125	-0.516496	0.935182	-0.0848977	-0.103458	-0.342031	0.269917	0.169173	0	0	-0.178726	0.0539598	-0.121964	0	-0.0160743	0	0	-0.186481	-0.0542403	-0.0940425	-0.0207323	-0.249211	0.523297	0.534659	1.45377	0	0	-0.0510998	-0.30322	0.40873	0.585383	1.55463	0	0
5.17	0.668017	1.43918	-2.17659	0.690053	-0.516966	0.935081	-0.0848481	-0.106037	-0.341533	0.275457	0.171687	0	0	-0.181965	0.0557764	-0.120471	0	-0.0168566	0	0	-0.1887	-0.0544985	-0.0935076	-0.0204121	-0.247365	0.534346	0.516361	1.45986	0	0	-0.0452235	-0.306281	0.40774	0.590497	1.55263	0	0
5.18	0.667692	1.43781	-2.17528	0.691003	-0.517347	0.934973	-0.0840526	-0.108555	-0.340351	0.281195	0.173987	0	0	-0.184675	0.057602	-0.119757	0	-0.0174525	0	0	-0.190567	-0.0544603	-0.0927065	-0.0205787	-0.246338	0.544584	0.501019	1.46645	0	0	-0.0393714	-0.309046	0.406105	0.595755	1.55069	0	0
5.19	0.67101	1.43727	-2.17813	0.691925	-0.517633	0.934803	-0.0817222	-0.111219	-0.339488	0.287492	0.176312	0	0	-0.186199	0.0594472	-0.119646	0	-0.0179471	0	0	-0.191437	-0.0543561	-0.091492	-0.0214254	-0.24592	0.553654	0.488887	1.47382	0	0	-0.0336531	-0.311468	0.404212	0.600725	1.54671	0	0
5.2	0.677245	1.43689	-2.1832	0.692863	-0.517925	0.934631	-0.0795518	-0.113949	-0.339772	0.293013	0.178476	0	0	-0.187191	0.0612642	-0.118803	0	-0.0185247	0	0	-0.191837	-0.0545465	-0.0911329	-0.0232116	-0.245553	0.561091	0.479556	1.48051	0	0	-0.0284142	-0.313897	0.402745	0.60534	1.53793	0	0
5.21	0.685997	1.43652	-2.19039	0.69383	-0.518192	0.93442	-0.0774737	-0.116932	-0.341272	0.298126	0.181055	0	0	-0.187802	0.0633273	-0.117873	0	-0.0190853	0	0	-0.191692	-0.0551796	-0.0915322	-0.0246554	-0.247282	0.579187	0.473431	1.47387	0	0	-0.0236381	-0.322412	0.427027	0.618437	1.44513	0	0
5.22	0.695158	1.43688	-2.19842	0.6948	-0.51849	0.934187	-0.0751747	-0.119366	-0.342124	0.302071	0.182795	0	0	-0.187691	0.0651155	-0.117839	0	-0.0194563	0	0	-0.19083	-0.0552483	-0.0916349	-0.0272106	-0.249263	0.589082	0.470813	1.47119	0	0	-0.0188458	-0.325248	0.426479	0.624417	1.43079	0	0
5.23	0.704578	1.43782	-2.20699	0.695762	-0.518832	0.933956	-0.0726155	-0.121355	-0.342641	0.305394	0.183884	0	0	-0.187116	0.0664827	-0.11738	0	-0.0194196	0	0	-0.18961	-0.0547916	-0.0913381	-0.0313906	-0.247966	0.575019	0.466943	1.50508	0	0	-0.0141667	-0.321398	0.398022	0.621601	1.50757	0	0
5.24	0.711894	1.43824	-2.21326	0.696688	-0.519149	0.933756	-0.070931	-0.123315	-0.343714	0.308241	0.185528	0	0	-0.187144	0.0677835	-0.115986	0	-0.0195282	0	0	-0.188704	-0.0546421	-0.0914464	-0.0351169	-0.249204	0.574981	0.467137	1.5124	0	0	-0.0098462	-0.323798	0.396788	0.626815	1.4958	0	0
5.25	0.718009	1.43869	-2.21869	0.697564	-0.519452	0.933572	-0.0695534	-0.124991	-0.34424	0.310413	0.186565	0	0	-0.187247	0.0689136	-0.114269	0	-0.0198169	0	0	-0.187847	-0.0543928	-0.0912488	-0.0388081	-0.25088	0.574085	0.468832	1.51907	0	0	-0.00561229	-0.326217	0.395112	0.632195	1.48512	0	0
5.26	0.727762	1.43985	-2.22726	0.698491	-0.519592	0.933319	-0.0671115	-0.126681	-0.345076	0.312729	0.187491	0	0	-0.186004	0.0699768	-0.113274	0	-0.019707	0	0	-0.186469	-0.0539851	-0.0917656	-0.042049	-0.252816	0.572296	0.471724	1.52467	0	0	-0.00149567	-0.328538	0.392303	0.638218	1.4768	0	0
5.27	0.737773	1.44086	-2.23621	0.699364	-0.519729	0.933088	-0.0647546	-0.128473	-0.346209	0.315095	0.188458	0	0	-0.184777	0.0711259	-0.112634	0	-0.0194153	0	0	-0.185139	-0.0537793	-0.0922032	-0.0452955	-0.254779	0.569521	0.475593	1.52893	0	0	0.00231501	-0.330821	0.388994	0.644514	1.47025	0	0
5.28	0.745988	1.44139	-2.24351	0.700179	-0.51996	0.932923	-0.0633398	-0.130161	-0.347302	0.316747	0.189741	0	0	-0.184243	0.0723378	-0.111882	0	-0.0192102	0	0	-0.184083	-0.0537854	-0.0924404	-0.0487325	-0.256797	0.565834	0.480387	1.53207	0	0	0.00574569	-0.333143	0.386075	0.650478	1.46403	0	0
5.29	0.750885	1.44146	-2.24763	0.700906	-0.520257	0.932817	-0.0629495	-0.131588	-0.348448	0.317821	0.190696	0	0	-0.184536	0.0733869	-0.110446	0	-0.0190704	0	0	-0.183494	-0.0539175	-0.0927029	-0.0519236	-0.258686	0.561504	0.485811	1.53446	0	0	0.00867411	-0.335668	0.38312	0.65683	1.45876	0	0
5.3	0.756828	1.44135	-2.25298	0.701567	-0.52054	0.932561	-0.0616831	-0.133786	-0.351012	0.321172	0.193455	0	0	-0.184775	0.0746602	-0.109525	0	-0.0178996	0	0	-0.181409	-0.0548212	-0.0920309	-0.0529088	-0.279027	0.662438	0.518853	1.21386	0	0	0.0142324	-0.35734	0.463982	0.684024	1.21719	0	0
